<svg xmlns="http://www.w3.org/2000/svg" viewBox="0 0 128 128" width="512px" height="512px">
	<path d="M 66.800781 12.5 C 54.200781 12.5 43.899609 22.599219 43.599609 35.199219 C 32.899609 39.799219 25.800781 50.400781 25.800781 62.300781 C 25.800781 78.600781 38.899609 91.800781 55.099609 91.800781 L 76.900391 91.800781 C 90.900391 91.900781 102.19922 80.500391 102.19922 66.400391 C 102.19922 56.900391 96.899219 48.200391 88.699219 43.900391 C 89.599219 41.300391 90.099609 38.600391 90.099609 35.900391 C 89.999609 23.000391 79.600781 12.5 66.800781 12.5 z M 66.800781 18.599609 C 76.300781 18.599609 77 26.300391 77 35.900391 C 77 38.800391 76.3 41.499609 75 44.099609 C 74.6 44.899609 74.500781 45.799609 74.800781 46.599609 C 75.100781 47.399609 75.699609 48.000781 76.599609 48.300781 C 84.099609 51.100781 89.099609 58.4 89.099609 66.5 C 89.199609 77.2 80.600391 85.900391 69.900391 85.900391 L 55.099609 85.900391 C 42.299609 85.900391 31.800781 75.400391 31.800781 62.400391 C 31.800781 52.300391 38.199609 43.399219 47.599609 40.199219 C 48.899609 39.799219 49.699609 38.499219 49.599609 37.199219 L 49.599609 36 C 49.599609 26.4 57.300781 18.599609 66.800781 18.599609 z M 64 41 C 62.3 41 61 42.3 61 44 L 61 57.599609 L 49.199219 51.599609 C 47.699219 50.899609 45.899219 51.400391 45.199219 52.900391 C 44.499219 54.400391 45 56.200391 46.5 56.900391 L 61 64.400391 L 61 80.5 C 61 82.2 62.3 83.5 64 83.5 C 65.7 83.5 67 82.2 67 80.5 L 67 78.699219 L 81.5 71.400391 C 83 70.700391 83.600781 68.900391 82.800781 67.400391 C 82.000781 65.900391 80.300781 65.2 78.800781 66 L 67 72 L 67 44 C 67 42.3 65.7 41 64 41 z M 64 94 C 62.3 94 61 95.3 61 97 L 61 112.5 C 61 114.2 62.3 115.5 64 115.5 C 65.7 115.5 67 114.2 67 112.5 L 67 97 C 67 95.3 65.7 94 64 94 z" />
</svg>
